<svg xmlns="http://www.w3.org/2000/svg" width="961" height="535" viewBox="0 0 961 535" role="img" aria-label="Erectsafe Scaffolding logo">
<title>Erectsafe Scaffolding Logo</title>
<desc>Clean vector conversion from the supplied raster logo, with a white rounded background for browser/window chrome use.</desc>
<rect id="white-background" x="0" y="0" width="961" height="535" rx="48" ry="48" fill="#FFFFFF"/>
<path id="orange" fill="#F7941D" fill-rule="evenodd" d="M 852.00 336.00 L 852.00 412.00 L 928.00 412.00 L 934.00 396.00 L 871.00 396.00 L 869.00 394.00 L 869.00 384.00 L 871.00 382.00 L 927.00 382.00 L 933.00 366.00 L 871.00 366.00 L 869.00 364.00 L 869.00 354.00 L 871.00 352.00 L 928.00 352.00 L 934.00 336.00 Z M 756.00 336.00 L 756.00 412.00 L 772.00 412.00 L 772.00 384.00 L 774.00 382.00 L 833.00 382.00 L 833.00 366.00 L 774.00 366.00 L 772.00 364.00 L 772.00 354.00 L 774.00 352.00 L 837.00 352.00 L 837.00 336.00 Z M 650.00 342.00 L 645.00 351.00 L 644.00 357.00 L 644.00 412.00 L 661.00 412.00 L 661.00 384.00 L 663.00 382.00 L 720.00 382.00 L 722.00 384.00 L 722.00 412.00 L 739.00 412.00 L 739.00 355.00 L 736.00 346.00 L 730.00 339.00 L 724.00 336.00 L 659.00 336.00 Z M 661.00 357.00 L 666.00 352.00 L 717.00 352.00 L 722.00 356.00 L 722.00 364.00 L 720.00 366.00 L 663.00 366.00 L 661.00 364.00 Z M 540.00 344.00 L 536.00 353.00 L 536.00 365.00 L 540.00 374.00 L 545.00 379.00 L 551.00 382.00 L 607.00 382.00 L 611.00 386.00 L 611.00 391.00 L 606.00 396.00 L 540.00 396.00 L 540.00 412.00 L 612.00 412.00 L 617.00 410.00 L 623.00 405.00 L 627.00 397.00 L 628.00 385.00 L 625.00 376.00 L 619.00 369.00 L 613.00 366.00 L 557.00 366.00 L 553.00 362.00 L 553.00 356.00 L 557.00 352.00 L 624.00 352.00 L 624.00 336.00 L 551.00 336.00 L 545.00 339.00 Z M 21.00 285.00 L 253.00 285.00 L 311.00 227.00 L 21.00 227.00 Z M 707.00 21.00 L 641.00 87.00 L 641.00 182.00 L 880.00 184.00 L 837.00 227.00 L 639.00 227.00 L 581.00 285.00 L 868.00 285.00 L 933.00 220.00 L 933.00 124.00 L 694.00 122.00 L 737.00 79.00 L 878.00 79.00 L 934.00 21.00 Z M 398.00 21.00 L 333.00 86.00 L 333.00 182.00 L 572.00 184.00 L 529.00 227.00 L 331.00 227.00 L 273.00 285.00 L 560.00 285.00 L 625.00 220.00 L 625.00 124.00 L 386.00 122.00 L 429.00 79.00 L 570.00 79.00 L 626.00 21.00 Z M 21.00 79.00 L 254.00 79.00 L 312.00 21.00 L 21.00 21.00 Z"/>
<path id="charcoal" fill="#404041" fill-rule="evenodd" d="M 884.00 469.00 L 882.00 473.00 L 882.00 501.00 L 883.00 504.00 L 888.00 509.00 L 895.00 511.00 L 934.00 511.00 L 934.00 485.00 L 903.00 485.00 L 903.00 489.00 L 929.00 489.00 L 930.00 490.00 L 930.00 505.00 L 929.00 506.00 L 892.00 506.00 L 886.00 500.00 L 886.00 474.00 L 890.00 469.00 L 892.00 468.00 L 934.00 468.00 L 934.00 464.00 L 891.00 464.00 Z M 793.00 464.00 L 793.00 510.00 L 794.00 511.00 L 798.00 510.00 L 798.00 470.00 L 799.00 469.00 L 805.00 474.00 L 838.00 511.00 L 844.00 511.00 L 844.00 464.00 L 840.00 464.00 L 840.00 505.00 L 839.00 506.00 L 800.00 464.00 Z M 661.00 464.00 L 661.00 510.00 L 662.00 511.00 L 701.00 511.00 L 711.00 506.00 L 714.00 499.00 L 714.00 475.00 L 712.00 470.00 L 705.00 464.00 Z M 665.00 469.00 L 666.00 468.00 L 703.00 468.00 L 709.00 473.00 L 709.00 501.00 L 708.00 503.00 L 704.00 506.00 L 666.00 506.00 L 665.00 505.00 Z M 577.00 464.00 L 577.00 511.00 L 623.00 511.00 L 624.00 510.00 L 623.00 506.00 L 582.00 506.00 L 581.00 505.00 L 581.00 464.00 Z M 480.00 470.00 L 478.00 476.00 L 478.00 498.00 L 481.00 506.00 L 485.00 509.00 L 491.00 511.00 L 526.00 511.00 L 534.00 508.00 L 537.00 505.00 L 539.00 500.00 L 539.00 475.00 L 536.00 468.00 L 530.00 464.00 L 488.00 464.00 L 485.00 465.00 Z M 483.00 473.00 L 489.00 468.00 L 528.00 468.00 L 534.00 473.00 L 535.00 476.00 L 535.00 498.00 L 533.00 503.00 L 529.00 506.00 L 488.00 506.00 L 483.00 501.00 Z M 391.00 464.00 L 391.00 510.00 L 392.00 511.00 L 396.00 510.00 L 396.00 490.00 L 397.00 489.00 L 442.00 489.00 L 442.00 485.00 L 397.00 485.00 L 396.00 484.00 L 396.00 469.00 L 397.00 468.00 L 442.00 468.00 L 442.00 464.00 Z M 304.00 464.00 L 304.00 510.00 L 305.00 511.00 L 309.00 510.00 L 309.00 490.00 L 310.00 489.00 L 355.00 489.00 L 355.00 485.00 L 310.00 485.00 L 309.00 484.00 L 309.00 469.00 L 310.00 468.00 L 355.00 468.00 L 355.00 464.00 Z M 209.00 468.00 L 207.00 473.00 L 207.00 511.00 L 211.00 511.00 L 211.00 490.00 L 212.00 489.00 L 261.00 489.00 L 262.00 490.00 L 262.00 510.00 L 263.00 511.00 L 267.00 510.00 L 267.00 476.00 L 265.00 469.00 L 259.00 464.00 L 214.00 464.00 Z M 211.00 474.00 L 213.00 470.00 L 216.00 468.00 L 258.00 468.00 L 262.00 473.00 L 262.00 484.00 L 261.00 485.00 L 212.00 485.00 L 211.00 484.00 Z M 118.00 470.00 L 117.00 472.00 L 117.00 502.00 L 123.00 509.00 L 130.00 511.00 L 169.00 511.00 L 169.00 506.00 L 126.00 506.00 L 121.00 500.00 L 121.00 474.00 L 125.00 469.00 L 127.00 468.00 L 169.00 468.00 L 169.00 464.00 L 126.00 464.00 Z M 23.00 469.00 L 21.00 474.00 L 21.00 479.00 L 23.00 484.00 L 29.00 489.00 L 69.00 489.00 L 74.00 493.00 L 75.00 500.00 L 73.00 504.00 L 70.00 506.00 L 21.00 506.00 L 21.00 511.00 L 68.00 511.00 L 74.00 509.00 L 77.00 506.00 L 79.00 501.00 L 79.00 495.00 L 77.00 490.00 L 71.00 485.00 L 30.00 485.00 L 26.00 481.00 L 25.00 475.00 L 26.00 472.00 L 30.00 468.00 L 79.00 468.00 L 79.00 464.00 L 29.00 464.00 Z M 751.00 463.00 L 751.00 511.00 L 756.00 511.00 L 756.00 463.00 Z M 433.00 353.00 L 467.00 353.00 L 468.00 354.00 L 468.00 412.00 L 485.00 412.00 L 485.00 354.00 L 486.00 353.00 L 533.00 353.00 L 537.00 343.00 L 545.00 335.00 L 433.00 335.00 Z M 336.00 345.00 L 332.00 353.00 L 332.00 395.00 L 336.00 403.00 L 341.00 408.00 L 350.00 412.00 L 417.00 412.00 L 417.00 396.00 L 416.00 395.00 L 353.00 395.00 L 349.00 391.00 L 349.00 357.00 L 351.00 354.00 L 353.00 353.00 L 416.00 353.00 L 417.00 352.00 L 417.00 336.00 L 416.00 335.00 L 355.00 335.00 L 344.00 338.00 Z M 233.00 335.00 L 233.00 412.00 L 309.00 412.00 L 315.00 395.00 L 251.00 395.00 L 250.00 394.00 L 250.00 384.00 L 251.00 383.00 L 309.00 383.00 L 315.00 365.00 L 251.00 365.00 L 250.00 364.00 L 250.00 354.00 L 251.00 353.00 L 309.00 353.00 L 315.00 335.00 Z M 120.00 335.00 L 120.00 412.00 L 137.00 412.00 L 137.00 354.00 L 138.00 353.00 L 197.00 353.00 L 200.00 356.00 L 201.00 360.00 L 195.00 366.00 L 148.00 366.00 L 186.00 412.00 L 210.00 412.00 L 189.00 385.00 L 190.00 383.00 L 200.00 383.00 L 207.00 380.00 L 212.00 375.00 L 217.00 365.00 L 216.00 352.00 L 213.00 345.00 L 206.00 338.00 L 197.00 335.00 Z M 21.00 335.00 L 21.00 412.00 L 98.00 412.00 L 103.00 395.00 L 39.00 395.00 L 38.00 394.00 L 38.00 384.00 L 39.00 383.00 L 97.00 383.00 L 103.00 368.00 L 103.00 365.00 L 39.00 365.00 L 38.00 364.00 L 38.00 354.00 L 39.00 353.00 L 97.00 353.00 L 102.00 341.00 L 103.00 335.00 Z M 21.00 182.00 L 253.00 182.00 L 312.00 124.00 L 21.00 124.00 Z"/>
<path id="white" fill="#F2F2F2" fill-rule="evenodd" d="M 666.00 469.00 L 666.00 505.00 L 704.00 505.00 L 706.00 503.00 L 707.00 503.00 L 708.00 501.00 L 708.00 473.00 L 705.00 470.00 L 703.00 469.00 Z M 484.00 473.00 L 484.00 501.00 L 488.00 505.00 L 529.00 505.00 L 532.00 503.00 L 533.00 499.00 L 534.00 498.00 L 534.00 476.00 L 533.00 475.00 L 533.00 473.00 L 530.00 470.00 L 528.00 469.00 L 489.00 469.00 Z M 212.00 474.00 L 212.00 484.00 L 261.00 484.00 L 261.00 473.00 L 258.00 469.00 L 216.00 469.00 L 214.00 470.00 Z M 840.00 463.00 L 839.00 464.00 L 839.00 503.00 L 837.00 504.00 L 839.00 506.00 L 839.00 464.00 L 840.00 463.00 L 844.00 463.00 L 845.00 464.00 L 845.00 511.00 L 845.00 464.00 L 844.00 463.00 Z M 662.00 358.00 L 662.00 364.00 L 721.00 364.00 L 721.00 357.00 L 719.00 354.00 L 664.00 354.00 Z M 544.00 337.00 L 538.00 343.00 L 535.00 349.00 L 536.00 351.00 L 534.00 352.00 L 534.00 353.00 L 536.00 352.00 L 537.00 347.00 L 544.00 339.00 Z M 580.00 286.00 L 868.00 286.00 L 934.00 220.00 L 934.00 123.00 L 695.00 123.00 L 933.00 123.00 L 934.00 220.00 L 868.00 286.00 L 581.00 284.00 L 639.00 226.00 L 837.00 226.00 L 879.00 183.00 L 641.00 183.00 L 878.00 185.00 L 837.00 226.00 L 639.00 226.00 Z M 272.00 286.00 L 560.00 286.00 L 626.00 220.00 L 626.00 124.00 L 387.00 123.00 L 625.00 123.00 L 626.00 220.00 L 560.00 286.00 L 274.00 286.00 L 279.00 278.00 Z M 332.00 87.00 L 332.00 183.00 L 569.00 183.00 L 570.00 185.00 L 529.00 226.00 L 331.00 226.00 L 529.00 226.00 L 571.00 184.00 L 333.00 183.00 Z"/>
</svg>